solid OpenSCAD_Model
  facet normal 1 0 0
    outer loop
      vertex 56 0 0
      vertex 56 94.5 10
      vertex 56 0 10
    endloop
  endfacet
  facet normal 1 0 0
    outer loop
      vertex 56 94.5 10
      vertex 56 0 0
      vertex 56 126 0
    endloop
  endfacet
  facet normal -1 0 0
    outer loop
      vertex 0 0 0
      vertex 0 94.5 10
      vertex 0 126 0
    endloop
  endfacet
  facet normal -1 -0 0
    outer loop
      vertex 0 94.5 10
      vertex 0 0 0
      vertex 0 0 10
    endloop
  endfacet
  facet normal 0 0 -1
    outer loop
      vertex 55.6875 124.335 0
      vertex 56 0 0
      vertex 55.6875 0.162 0
    endloop
  endfacet
  facet normal 0 0 -1
    outer loop
      vertex 0 0 0
      vertex 55.6875 0.162 0
      vertex 56 0 0
    endloop
  endfacet
  facet normal -0 0 -1
    outer loop
      vertex 0.247499 0.162 0
      vertex 0 0 0
      vertex 0.247499 124.335 0
    endloop
  endfacet
  facet normal -0 0 -1
    outer loop
      vertex 55.6875 0.162 0
      vertex 0 0 0
      vertex 0.247499 0.162 0
    endloop
  endfacet
  facet normal 0 0 -1
    outer loop
      vertex 56 0 0
      vertex 55.6875 124.335 0
      vertex 56 126 0
    endloop
  endfacet
  facet normal 0 0 -1
    outer loop
      vertex 44.748 131.355 0
      vertex 56 126 0
      vertex 55.6875 124.335 0
    endloop
  endfacet
  facet normal 0 0 -1
    outer loop
      vertex 44.748 131.355 0
      vertex 39 136 0
      vertex 56 126 0
    endloop
  endfacet
  facet normal 0 0 -1
    outer loop
      vertex 38.8575 134.19 0
      vertex 39 136 0
      vertex 44.748 131.355 0
    endloop
  endfacet
  facet normal 0 0 -1
    outer loop
      vertex 19 136 0
      vertex 38.8575 134.19 0
      vertex 19.0575 134.19 0
    endloop
  endfacet
  facet normal 0 0 -1
    outer loop
      vertex 38.8575 134.19 0
      vertex 19 136 0
      vertex 39 136 0
    endloop
  endfacet
  facet normal 0 0 -1
    outer loop
      vertex 12.474 131.355 0
      vertex 19 136 0
      vertex 19.0575 134.19 0
    endloop
  endfacet
  facet normal 0 0 -1
    outer loop
      vertex 0 126 0
      vertex 12.474 131.355 0
      vertex 0.247499 124.335 0
    endloop
  endfacet
  facet normal -0 0 -1
    outer loop
      vertex 12.474 131.355 0
      vertex 0 126 0
      vertex 19 136 0
    endloop
  endfacet
  facet normal 0 0 -1
    outer loop
      vertex 0 126 0
      vertex 0.247499 124.335 0
      vertex 0 0 0
    endloop
  endfacet
  facet normal -0.15727 0.298814 0.941263
    outer loop
      vertex 0 126 0
      vertex 0 94.5 10
      vertex 19 136 0
    endloop
  endfacet
  facet normal 0 -1 0
    outer loop
      vertex 0 0 0
      vertex 56 0 10
      vertex 0 0 10
    endloop
  endfacet
  facet normal 0 -1 -0
    outer loop
      vertex 56 0 10
      vertex 0 0 0
      vertex 56 0 0
    endloop
  endfacet
  facet normal -0 0 1
    outer loop
      vertex 19 102 10
      vertex 56 94.5 10
      vertex 39 102 10
    endloop
  endfacet
  facet normal 0 0 1
    outer loop
      vertex 0 94.5 10
      vertex 56 94.5 10
      vertex 19 102 10
    endloop
  endfacet
  facet normal 0 0 1
    outer loop
      vertex 56 94.5 10
      vertex 0 94.5 10
      vertex 56 0 10
    endloop
  endfacet
  facet normal 0 0 1
    outer loop
      vertex 56 0 10
      vertex 0 94.5 10
      vertex 0 0 10
    endloop
  endfacet
  facet normal 0.123532 0.280005 0.952017
    outer loop
      vertex 39 136 0
      vertex 39 102 10
      vertex 56 94.5 10
    endloop
  endfacet
  facet normal 0.175234 0.297897 0.938376
    outer loop
      vertex 56 126 0
      vertex 39 136 0
      vertex 56 94.5 10
    endloop
  endfacet
  facet normal -0 0.282166 0.959366
    outer loop
      vertex 19 136 0
      vertex 39 102 10
      vertex 39 136 0
    endloop
  endfacet
  facet normal 0 0.282166 0.959366
    outer loop
      vertex 39 102 10
      vertex 19 136 0
      vertex 19 102 10
    endloop
  endfacet
  facet normal -0.110697 0.280432 0.953469
    outer loop
      vertex 19 136 0
      vertex 0 94.5 10
      vertex 19 102 10
    endloop
  endfacet
  facet normal -1 0 0
    outer loop
      vertex 55.6875 0.162 0
      vertex 55.6875 102.222 6.39844
      vertex 55.6875 124.335 0
    endloop
  endfacet
  facet normal -1 -0 0
    outer loop
      vertex 55.6875 102.222 6.39844
      vertex 55.6875 0.162 0
      vertex 55.6875 0.162 6.39844
    endloop
  endfacet
  facet normal 1 0 0
    outer loop
      vertex 0.247499 0.162 0
      vertex 0.247499 102.222 6.39844
      vertex 0.247499 0.162 6.39844
    endloop
  endfacet
  facet normal 1 0 0
    outer loop
      vertex 0.247499 102.222 6.39844
      vertex 0.247499 0.162 0
      vertex 0.247499 124.335 0
    endloop
  endfacet
  facet normal 0.157594 -0.274477 -0.948592
    outer loop
      vertex 0.247499 124.335 0
      vertex 12.474 131.355 0
      vertex 0.247499 102.222 6.39844
    endloop
  endfacet
  facet normal 0 1 -0
    outer loop
      vertex 55.6875 0.162 0
      vertex 0.247499 0.162 6.39844
      vertex 55.6875 0.162 6.39844
    endloop
  endfacet
  facet normal 0 1 0
    outer loop
      vertex 0.247499 0.162 6.39844
      vertex 55.6875 0.162 0
      vertex 0.247499 0.162 0
    endloop
  endfacet
  facet normal 0 0 -1
    outer loop
      vertex 52.3464 100.4 6.39844
      vertex 55.6875 0.162 6.39844
      vertex 52.3464 0.5 6.39844
    endloop
  endfacet
  facet normal 0 0 -1
    outer loop
      vertex 55.6875 0.162 6.39844
      vertex 51.6667 0.5 6.39844
      vertex 52.3464 0.5 6.39844
    endloop
  endfacet
  facet normal 0 0 -1
    outer loop
      vertex 51.6667 0.5 6.39844
      vertex 48.3464 0.5 6.39844
      vertex 51.6667 100.4 6.39844
    endloop
  endfacet
  facet normal 0 0 -1
    outer loop
      vertex 55.6875 0.162 6.39844
      vertex 48.3464 0.5 6.39844
      vertex 51.6667 0.5 6.39844
    endloop
  endfacet
  facet normal 0 0 -1
    outer loop
      vertex 55.6875 0.162 6.39844
      vertex 47.6667 0.5 6.39844
      vertex 48.3464 0.5 6.39844
    endloop
  endfacet
  facet normal 0 0 -1
    outer loop
      vertex 47.6667 0.5 6.39844
      vertex 44.3464 0.5 6.39844
      vertex 47.6667 100.4 6.39844
    endloop
  endfacet
  facet normal 0 0 -1
    outer loop
      vertex 55.6875 0.162 6.39844
      vertex 44.3464 0.5 6.39844
      vertex 47.6667 0.5 6.39844
    endloop
  endfacet
  facet normal 0 0 -1
    outer loop
      vertex 55.6875 0.162 6.39844
      vertex 43.6667 0.5 6.39844
      vertex 44.3464 0.5 6.39844
    endloop
  endfacet
  facet normal 0 0 -1
    outer loop
      vertex 43.6667 0.5 6.39844
      vertex 40.3464 0.5 6.39844
      vertex 43.6667 100.4 6.39844
    endloop
  endfacet
  facet normal 0 0 -1
    outer loop
      vertex 55.6875 0.162 6.39844
      vertex 40.3464 0.5 6.39844
      vertex 43.6667 0.5 6.39844
    endloop
  endfacet
  facet normal 0 0 -1
    outer loop
      vertex 55.6875 0.162 6.39844
      vertex 39.6667 0.5 6.39844
      vertex 40.3464 0.5 6.39844
    endloop
  endfacet
  facet normal 0 0 -1
    outer loop
      vertex 36.3464 100.4 6.39844
      vertex 39.6667 100.4 6.39844
      vertex 39.6667 0.5 6.39844
    endloop
  endfacet
  facet normal 0 0 -1
    outer loop
      vertex 36.3464 100.4 6.39844
      vertex 39.6667 0.5 6.39844
      vertex 36.3464 0.5 6.39844
    endloop
  endfacet
  facet normal 0 0 -1
    outer loop
      vertex 55.6875 0.162 6.39844
      vertex 36.3464 0.5 6.39844
      vertex 39.6667 0.5 6.39844
    endloop
  endfacet
  facet normal 0 0 -1
    outer loop
      vertex 55.6875 0.162 6.39844
      vertex 35.6667 0.5 6.39844
      vertex 36.3464 0.5 6.39844
    endloop
  endfacet
  facet normal 0 0 -1
    outer loop
      vertex 35.6667 0.5 6.39844
      vertex 32.3464 0.5 6.39844
      vertex 35.6667 100.4 6.39844
    endloop
  endfacet
  facet normal 0 0 -1
    outer loop
      vertex 55.6875 0.162 6.39844
      vertex 32.3464 0.5 6.39844
      vertex 35.6667 0.5 6.39844
    endloop
  endfacet
  facet normal 0 0 -1
    outer loop
      vertex 55.6875 0.162 6.39844
      vertex 31.6667 0.5 6.39844
      vertex 32.3464 0.5 6.39844
    endloop
  endfacet
  facet normal 0 0 -1
    outer loop
      vertex 31.6667 0.5 6.39844
      vertex 28.3464 0.5 6.39844
      vertex 31.6667 100.4 6.39844
    endloop
  endfacet
  facet normal 0 0 -1
    outer loop
      vertex 55.6875 0.162 6.39844
      vertex 28.3464 0.5 6.39844
      vertex 31.6667 0.5 6.39844
    endloop
  endfacet
  facet normal 0 0 -1
    outer loop
      vertex 55.6875 0.162 6.39844
      vertex 27.6667 0.5 6.39844
      vertex 28.3464 0.5 6.39844
    endloop
  endfacet
  facet normal 0 0 -1
    outer loop
      vertex 27.6667 0.5 6.39844
      vertex 24.3464 0.5 6.39844
      vertex 27.6667 100.4 6.39844
    endloop
  endfacet
  facet normal 0 0 -1
    outer loop
      vertex 55.6875 0.162 6.39844
      vertex 24.3464 0.5 6.39844
      vertex 27.6667 0.5 6.39844
    endloop
  endfacet
  facet normal 0 0 -1
    outer loop
      vertex 55.6875 0.162 6.39844
      vertex 23.6667 0.5 6.39844
      vertex 24.3464 0.5 6.39844
    endloop
  endfacet
  facet normal 0 0 -1
    outer loop
      vertex 23.6667 0.5 6.39844
      vertex 20.3464 0.5 6.39844
      vertex 23.6667 100.4 6.39844
    endloop
  endfacet
  facet normal 0 0 -1
    outer loop
      vertex 55.6875 0.162 6.39844
      vertex 20.3464 0.5 6.39844
      vertex 23.6667 0.5 6.39844
    endloop
  endfacet
  facet normal 0 0 -1
    outer loop
      vertex 55.6875 0.162 6.39844
      vertex 19.6667 0.5 6.39844
      vertex 20.3464 0.5 6.39844
    endloop
  endfacet
  facet normal 0 0 -1
    outer loop
      vertex 16.3464 100.4 6.39844
      vertex 19.6667 100.4 6.39844
      vertex 19.6667 0.5 6.39844
    endloop
  endfacet
  facet normal 0 0 -1
    outer loop
      vertex 16.3464 100.4 6.39844
      vertex 19.6667 0.5 6.39844
      vertex 16.3464 0.5 6.39844
    endloop
  endfacet
  facet normal 0 0 -1
    outer loop
      vertex 0.247499 0.162 6.39844
      vertex 19.6667 0.5 6.39844
      vertex 55.6875 0.162 6.39844
    endloop
  endfacet
  facet normal -0 0 -1
    outer loop
      vertex 19.6667 0.5 6.39844
      vertex 0.247499 0.162 6.39844
      vertex 16.3464 0.5 6.39844
    endloop
  endfacet
  facet normal 0 0 -1
    outer loop
      vertex 15.6667 0.5 6.39844
      vertex 12.3464 0.5 6.39844
      vertex 15.6667 100.4 6.39844
    endloop
  endfacet
  facet normal -0 0 -1
    outer loop
      vertex 16.3464 0.5 6.39844
      vertex 0.247499 0.162 6.39844
      vertex 15.6667 0.5 6.39844
    endloop
  endfacet
  facet normal -0 0 -1
    outer loop
      vertex 15.6667 0.5 6.39844
      vertex 0.247499 0.162 6.39844
      vertex 12.3464 0.5 6.39844
    endloop
  endfacet
  facet normal 0 0 -1
    outer loop
      vertex 11.6667 0.5 6.39844
      vertex 8.34641 0.5 6.39844
      vertex 11.6667 100.4 6.39844
    endloop
  endfacet
  facet normal -0 0 -1
    outer loop
      vertex 12.3464 0.5 6.39844
      vertex 0.247499 0.162 6.39844
      vertex 11.6667 0.5 6.39844
    endloop
  endfacet
  facet normal -0 0 -1
    outer loop
      vertex 11.6667 0.5 6.39844
      vertex 0.247499 0.162 6.39844
      vertex 8.34641 0.5 6.39844
    endloop
  endfacet
  facet normal 0 0 -1
    outer loop
      vertex 7.66667 0.5 6.39844
      vertex 4.34641 0.5 6.39844
      vertex 7.66667 100.4 6.39844
    endloop
  endfacet
  facet normal -0 0 -1
    outer loop
      vertex 8.34641 0.5 6.39844
      vertex 0.247499 0.162 6.39844
      vertex 7.66667 0.5 6.39844
    endloop
  endfacet
  facet normal -0 0 -1
    outer loop
      vertex 7.66667 0.5 6.39844
      vertex 0.247499 0.162 6.39844
      vertex 4.34641 0.5 6.39844
    endloop
  endfacet
  facet normal -0 0 -1
    outer loop
      vertex 3.66667 0.5 6.39844
      vertex 0.247499 0.162 6.39844
      vertex 3.66667 100.4 6.39844
    endloop
  endfacet
  facet normal -0 0 -1
    outer loop
      vertex 4.34641 0.5 6.39844
      vertex 0.247499 0.162 6.39844
      vertex 3.66667 0.5 6.39844
    endloop
  endfacet
  facet normal 0 0 -1
    outer loop
      vertex 55.6875 0.162 6.39844
      vertex 52.3464 100.4 6.39844
      vertex 55.6875 102.222 6.39844
    endloop
  endfacet
  facet normal 0 0 -1
    outer loop
      vertex 51.6667 100.4 6.39844
      vertex 55.6875 102.222 6.39844
      vertex 52.3464 100.4 6.39844
    endloop
  endfacet
  facet normal 0 0 -1
    outer loop
      vertex 48.3464 100.4 6.39844
      vertex 51.6667 100.4 6.39844
      vertex 48.3464 0.5 6.39844
    endloop
  endfacet
  facet normal 0 0 -1
    outer loop
      vertex 48.3464 100.4 6.39844
      vertex 55.6875 102.222 6.39844
      vertex 51.6667 100.4 6.39844
    endloop
  endfacet
  facet normal 0 0 -1
    outer loop
      vertex 38.8575 110.322 6.39844
      vertex 48.3464 100.4 6.39844
      vertex 47.6667 100.4 6.39844
    endloop
  endfacet
  facet normal 0 0 -1
    outer loop
      vertex 44.3464 100.4 6.39844
      vertex 47.6667 100.4 6.39844
      vertex 44.3464 0.5 6.39844
    endloop
  endfacet
  facet normal 0 0 -1
    outer loop
      vertex 38.8575 110.322 6.39844
      vertex 47.6667 100.4 6.39844
      vertex 44.3464 100.4 6.39844
    endloop
  endfacet
  facet normal 0 0 -1
    outer loop
      vertex 38.8575 110.322 6.39844
      vertex 44.3464 100.4 6.39844
      vertex 43.6667 100.4 6.39844
    endloop
  endfacet
  facet normal 0 0 -1
    outer loop
      vertex 40.3464 100.4 6.39844
      vertex 43.6667 100.4 6.39844
      vertex 40.3464 0.5 6.39844
    endloop
  endfacet
  facet normal 0 0 -1
    outer loop
      vertex 38.8575 110.322 6.39844
      vertex 43.6667 100.4 6.39844
      vertex 40.3464 100.4 6.39844
    endloop
  endfacet
  facet normal 0 0 -1
    outer loop
      vertex 38.8575 110.322 6.39844
      vertex 40.3464 100.4 6.39844
      vertex 39.6667 100.4 6.39844
    endloop
  endfacet
  facet normal 0 0 -1
    outer loop
      vertex 48.3464 100.4 6.39844
      vertex 38.8575 110.322 6.39844
      vertex 55.6875 102.222 6.39844
    endloop
  endfacet
  facet normal 0 0 -1
    outer loop
      vertex 39.6667 100.4 6.39844
      vertex 36.3464 100.4 6.39844
      vertex 38.8575 110.322 6.39844
    endloop
  endfacet
  facet normal 0 0 -1
    outer loop
      vertex 35.6667 100.4 6.39844
      vertex 38.8575 110.322 6.39844
      vertex 36.3464 100.4 6.39844
    endloop
  endfacet
  facet normal 0 0 -1
    outer loop
      vertex 32.3464 100.4 6.39844
      vertex 35.6667 100.4 6.39844
      vertex 32.3464 0.5 6.39844
    endloop
  endfacet
  facet normal 0 0 -1
    outer loop
      vertex 32.3464 100.4 6.39844
      vertex 38.8575 110.322 6.39844
      vertex 35.6667 100.4 6.39844
    endloop
  endfacet
  facet normal 0 0 -1
    outer loop
      vertex 31.6667 100.4 6.39844
      vertex 38.8575 110.322 6.39844
      vertex 32.3464 100.4 6.39844
    endloop
  endfacet
  facet normal 0 0 -1
    outer loop
      vertex 28.3464 100.4 6.39844
      vertex 31.6667 100.4 6.39844
      vertex 28.3464 0.5 6.39844
    endloop
  endfacet
  facet normal 0 0 -1
    outer loop
      vertex 28.3464 100.4 6.39844
      vertex 38.8575 110.322 6.39844
      vertex 31.6667 100.4 6.39844
    endloop
  endfacet
  facet normal 0 0 -1
    outer loop
      vertex 19.0575 110.322 6.39844
      vertex 28.3464 100.4 6.39844
      vertex 27.6667 100.4 6.39844
    endloop
  endfacet
  facet normal 0 0 -1
    outer loop
      vertex 24.3464 100.4 6.39844
      vertex 27.6667 100.4 6.39844
      vertex 24.3464 0.5 6.39844
    endloop
  endfacet
  facet normal 0 0 -1
    outer loop
      vertex 19.0575 110.322 6.39844
      vertex 27.6667 100.4 6.39844
      vertex 24.3464 100.4 6.39844
    endloop
  endfacet
  facet normal 0 0 -1
    outer loop
      vertex 19.0575 110.322 6.39844
      vertex 24.3464 100.4 6.39844
      vertex 23.6667 100.4 6.39844
    endloop
  endfacet
  facet normal 0 0 -1
    outer loop
      vertex 20.3464 100.4 6.39844
      vertex 23.6667 100.4 6.39844
      vertex 20.3464 0.5 6.39844
    endloop
  endfacet
  facet normal 0 0 -1
    outer loop
      vertex 19.0575 110.322 6.39844
      vertex 23.6667 100.4 6.39844
      vertex 20.3464 100.4 6.39844
    endloop
  endfacet
  facet normal 0 0 -1
    outer loop
      vertex 19.0575 110.322 6.39844
      vertex 20.3464 100.4 6.39844
      vertex 19.6667 100.4 6.39844
    endloop
  endfacet
  facet normal 0 0 -1
    outer loop
      vertex 28.3464 100.4 6.39844
      vertex 19.0575 110.322 6.39844
      vertex 38.8575 110.322 6.39844
    endloop
  endfacet
  facet normal 0 0 -1
    outer loop
      vertex 19.6667 100.4 6.39844
      vertex 16.3464 100.4 6.39844
      vertex 19.0575 110.322 6.39844
    endloop
  endfacet
  facet normal 0 0 -1
    outer loop
      vertex 15.6667 100.4 6.39844
      vertex 19.0575 110.322 6.39844
      vertex 16.3464 100.4 6.39844
    endloop
  endfacet
  facet normal 0 0 -1
    outer loop
      vertex 12.3464 100.4 6.39844
      vertex 15.6667 100.4 6.39844
      vertex 12.3464 0.5 6.39844
    endloop
  endfacet
  facet normal 0 0 -1
    outer loop
      vertex 12.3464 100.4 6.39844
      vertex 19.0575 110.322 6.39844
      vertex 15.6667 100.4 6.39844
    endloop
  endfacet
  facet normal 0 0 -1
    outer loop
      vertex 11.6667 100.4 6.39844
      vertex 19.0575 110.322 6.39844
      vertex 12.3464 100.4 6.39844
    endloop
  endfacet
  facet normal 0 0 -1
    outer loop
      vertex 8.34641 100.4 6.39844
      vertex 11.6667 100.4 6.39844
      vertex 8.34641 0.5 6.39844
    endloop
  endfacet
  facet normal 0 0 -1
    outer loop
      vertex 8.34641 100.4 6.39844
      vertex 19.0575 110.322 6.39844
      vertex 11.6667 100.4 6.39844
    endloop
  endfacet
  facet normal 0 0 -1
    outer loop
      vertex 7.66667 100.4 6.39844
      vertex 19.0575 110.322 6.39844
      vertex 8.34641 100.4 6.39844
    endloop
  endfacet
  facet normal 0 0 -1
    outer loop
      vertex 4.34641 100.4 6.39844
      vertex 7.66667 100.4 6.39844
      vertex 4.34641 0.5 6.39844
    endloop
  endfacet
  facet normal 0 0 -1
    outer loop
      vertex 0.247499 102.222 6.39844
      vertex 7.66667 100.4 6.39844
      vertex 4.34641 100.4 6.39844
    endloop
  endfacet
  facet normal 0 0 -1
    outer loop
      vertex 0.247499 102.222 6.39844
      vertex 4.34641 100.4 6.39844
      vertex 3.66667 100.4 6.39844
    endloop
  endfacet
  facet normal 0 0 -1
    outer loop
      vertex 7.66667 100.4 6.39844
      vertex 0.247499 102.222 6.39844
      vertex 19.0575 110.322 6.39844
    endloop
  endfacet
  facet normal 0 0 -1
    outer loop
      vertex 0.247499 102.222 6.39844
      vertex 3.66667 100.4 6.39844
      vertex 0.247499 0.162 6.39844
    endloop
  endfacet
  facet normal -0.123664 -0.256946 -0.958481
    outer loop
      vertex 38.8575 110.322 6.39844
      vertex 44.748 131.355 0
      vertex 55.6875 102.222 6.39844
    endloop
  endfacet
  facet normal -0.123664 -0.256946 -0.958481
    outer loop
      vertex 44.748 131.355 0
      vertex 38.8575 110.322 6.39844
      vertex 38.8575 134.19 0
    endloop
  endfacet
  facet normal -0.175592 -0.273632 -0.945671
    outer loop
      vertex 55.6875 124.335 0
      vertex 55.6875 102.222 6.39844
      vertex 44.748 131.355 0
    endloop
  endfacet
  facet normal 0 -0.258933 -0.965895
    outer loop
      vertex 19.0575 110.322 6.39844
      vertex 38.8575 134.19 0
      vertex 38.8575 110.322 6.39844
    endloop
  endfacet
  facet normal -0 -0.258933 -0.965895
    outer loop
      vertex 38.8575 134.19 0
      vertex 19.0575 110.322 6.39844
      vertex 19.0575 134.19 0
    endloop
  endfacet
  facet normal 0.110816 -0.257338 -0.959946
    outer loop
      vertex 19.0575 110.322 6.39844
      vertex 12.474 131.355 0
      vertex 19.0575 134.19 0
    endloop
  endfacet
  facet normal 0.110816 -0.257339 -0.959946
    outer loop
      vertex 12.474 131.355 0
      vertex 19.0575 110.322 6.39844
      vertex 0.247499 102.222 6.39844
    endloop
  endfacet
  facet normal 0 1 0
    outer loop
      vertex 52 100.4 6.1
      vertex 52.3464 100.4 6.39844
      vertex 52.3464 100.4 6.3
    endloop
  endfacet
  facet normal 0 1 0
    outer loop
      vertex 52.3464 100.4 6.39844
      vertex 52 100.4 6.1
      vertex 51.6667 100.4 6.39844
    endloop
  endfacet
  facet normal 0 1 0
    outer loop
      vertex 51.6667 100.4 6.39844
      vertex 52 100.4 6.1
      vertex 51.6667 100.4 6.29245
    endloop
  endfacet
  facet normal 0 -1 0
    outer loop
      vertex 52 0.5 6.1
      vertex 52.3464 0.5 6.39844
      vertex 51.6667 0.5 6.39844
    endloop
  endfacet
  facet normal 0 -1 0
    outer loop
      vertex 52 0.5 6.1
      vertex 51.6667 0.5 6.39844
      vertex 51.6667 0.5 6.29245
    endloop
  endfacet
  facet normal 0 -1 -0
    outer loop
      vertex 52.3464 0.5 6.39844
      vertex 52 0.5 6.1
      vertex 52.3464 0.5 6.3
    endloop
  endfacet
  facet normal -1 0 0
    outer loop
      vertex 51.6667 0.5 6.29245
      vertex 51.6667 100.4 6.39844
      vertex 51.6667 100.4 6.29245
    endloop
  endfacet
  facet normal -1 -0 0
    outer loop
      vertex 51.6667 100.4 6.39844
      vertex 51.6667 0.5 6.29245
      vertex 51.6667 0.5 6.39844
    endloop
  endfacet
  facet normal -0.500001 0 -0.866025
    outer loop
      vertex 51.6667 0.5 6.29245
      vertex 52 100.4 6.1
      vertex 52 0.5 6.1
    endloop
  endfacet
  facet normal -0.500001 0 -0.866025
    outer loop
      vertex 52 100.4 6.1
      vertex 51.6667 0.5 6.29245
      vertex 51.6667 100.4 6.29245
    endloop
  endfacet
  facet normal 0.500001 0 -0.866025
    outer loop
      vertex 52 0.5 6.1
      vertex 52.3464 100.4 6.3
      vertex 52.3464 0.5 6.3
    endloop
  endfacet
  facet normal 0.500001 0 -0.866025
    outer loop
      vertex 52.3464 100.4 6.3
      vertex 52 0.5 6.1
      vertex 52 100.4 6.1
    endloop
  endfacet
  facet normal 1 -0 0
    outer loop
      vertex 52.3464 0.5 6.39844
      vertex 52.3464 100.4 6.3
      vertex 52.3464 100.4 6.39844
    endloop
  endfacet
  facet normal 1 0 0
    outer loop
      vertex 52.3464 100.4 6.3
      vertex 52.3464 0.5 6.39844
      vertex 52.3464 0.5 6.3
    endloop
  endfacet
  facet normal 0 1 0
    outer loop
      vertex 48 100.4 6.1
      vertex 48.3464 100.4 6.39844
      vertex 48.3464 100.4 6.3
    endloop
  endfacet
  facet normal 0 1 0
    outer loop
      vertex 48.3464 100.4 6.39844
      vertex 48 100.4 6.1
      vertex 47.6667 100.4 6.39844
    endloop
  endfacet
  facet normal 0 1 0
    outer loop
      vertex 47.6667 100.4 6.39844
      vertex 48 100.4 6.1
      vertex 47.6667 100.4 6.29245
    endloop
  endfacet
  facet normal 0 -1 0
    outer loop
      vertex 48 0.5 6.1
      vertex 48.3464 0.5 6.39844
      vertex 47.6667 0.5 6.39844
    endloop
  endfacet
  facet normal 0 -1 0
    outer loop
      vertex 48 0.5 6.1
      vertex 47.6667 0.5 6.39844
      vertex 47.6667 0.5 6.29245
    endloop
  endfacet
  facet normal 0 -1 -0
    outer loop
      vertex 48.3464 0.5 6.39844
      vertex 48 0.5 6.1
      vertex 48.3464 0.5 6.3
    endloop
  endfacet
  facet normal -1 0 0
    outer loop
      vertex 47.6667 0.5 6.29245
      vertex 47.6667 100.4 6.39844
      vertex 47.6667 100.4 6.29245
    endloop
  endfacet
  facet normal -1 -0 0
    outer loop
      vertex 47.6667 100.4 6.39844
      vertex 47.6667 0.5 6.29245
      vertex 47.6667 0.5 6.39844
    endloop
  endfacet
  facet normal -0.500001 0 -0.866025
    outer loop
      vertex 47.6667 0.5 6.29245
      vertex 48 100.4 6.1
      vertex 48 0.5 6.1
    endloop
  endfacet
  facet normal -0.500001 0 -0.866025
    outer loop
      vertex 48 100.4 6.1
      vertex 47.6667 0.5 6.29245
      vertex 47.6667 100.4 6.29245
    endloop
  endfacet
  facet normal 0.500001 0 -0.866025
    outer loop
      vertex 48 0.5 6.1
      vertex 48.3464 100.4 6.3
      vertex 48.3464 0.5 6.3
    endloop
  endfacet
  facet normal 0.500001 0 -0.866025
    outer loop
      vertex 48.3464 100.4 6.3
      vertex 48 0.5 6.1
      vertex 48 100.4 6.1
    endloop
  endfacet
  facet normal 1 -0 0
    outer loop
      vertex 48.3464 0.5 6.39844
      vertex 48.3464 100.4 6.3
      vertex 48.3464 100.4 6.39844
    endloop
  endfacet
  facet normal 1 0 0
    outer loop
      vertex 48.3464 100.4 6.3
      vertex 48.3464 0.5 6.39844
      vertex 48.3464 0.5 6.3
    endloop
  endfacet
  facet normal 0 1 0
    outer loop
      vertex 44 100.4 6.1
      vertex 44.3464 100.4 6.39844
      vertex 44.3464 100.4 6.3
    endloop
  endfacet
  facet normal 0 1 0
    outer loop
      vertex 44.3464 100.4 6.39844
      vertex 44 100.4 6.1
      vertex 43.6667 100.4 6.39844
    endloop
  endfacet
  facet normal 0 1 0
    outer loop
      vertex 43.6667 100.4 6.39844
      vertex 44 100.4 6.1
      vertex 43.6667 100.4 6.29245
    endloop
  endfacet
  facet normal 0 -1 0
    outer loop
      vertex 44 0.5 6.1
      vertex 44.3464 0.5 6.39844
      vertex 43.6667 0.5 6.39844
    endloop
  endfacet
  facet normal 0 -1 0
    outer loop
      vertex 44 0.5 6.1
      vertex 43.6667 0.5 6.39844
      vertex 43.6667 0.5 6.29245
    endloop
  endfacet
  facet normal 0 -1 -0
    outer loop
      vertex 44.3464 0.5 6.39844
      vertex 44 0.5 6.1
      vertex 44.3464 0.5 6.3
    endloop
  endfacet
  facet normal -1 0 0
    outer loop
      vertex 43.6667 0.5 6.29245
      vertex 43.6667 100.4 6.39844
      vertex 43.6667 100.4 6.29245
    endloop
  endfacet
  facet normal -1 -0 0
    outer loop
      vertex 43.6667 100.4 6.39844
      vertex 43.6667 0.5 6.29245
      vertex 43.6667 0.5 6.39844
    endloop
  endfacet
  facet normal -0.500001 0 -0.866025
    outer loop
      vertex 43.6667 0.5 6.29245
      vertex 44 100.4 6.1
      vertex 44 0.5 6.1
    endloop
  endfacet
  facet normal -0.500001 0 -0.866025
    outer loop
      vertex 44 100.4 6.1
      vertex 43.6667 0.5 6.29245
      vertex 43.6667 100.4 6.29245
    endloop
  endfacet
  facet normal 0.500001 0 -0.866025
    outer loop
      vertex 44 0.5 6.1
      vertex 44.3464 100.4 6.3
      vertex 44.3464 0.5 6.3
    endloop
  endfacet
  facet normal 0.500001 0 -0.866025
    outer loop
      vertex 44.3464 100.4 6.3
      vertex 44 0.5 6.1
      vertex 44 100.4 6.1
    endloop
  endfacet
  facet normal 1 -0 0
    outer loop
      vertex 44.3464 0.5 6.39844
      vertex 44.3464 100.4 6.3
      vertex 44.3464 100.4 6.39844
    endloop
  endfacet
  facet normal 1 0 0
    outer loop
      vertex 44.3464 100.4 6.3
      vertex 44.3464 0.5 6.39844
      vertex 44.3464 0.5 6.3
    endloop
  endfacet
  facet normal 0 1 0
    outer loop
      vertex 40 100.4 6.1
      vertex 40.3464 100.4 6.39844
      vertex 40.3464 100.4 6.3
    endloop
  endfacet
  facet normal 0 1 0
    outer loop
      vertex 40.3464 100.4 6.39844
      vertex 40 100.4 6.1
      vertex 39.6667 100.4 6.39844
    endloop
  endfacet
  facet normal 0 1 0
    outer loop
      vertex 39.6667 100.4 6.39844
      vertex 40 100.4 6.1
      vertex 39.6667 100.4 6.29245
    endloop
  endfacet
  facet normal 0 -1 0
    outer loop
      vertex 40 0.5 6.1
      vertex 40.3464 0.5 6.39844
      vertex 39.6667 0.5 6.39844
    endloop
  endfacet
  facet normal 0 -1 0
    outer loop
      vertex 40 0.5 6.1
      vertex 39.6667 0.5 6.39844
      vertex 39.6667 0.5 6.29245
    endloop
  endfacet
  facet normal 0 -1 -0
    outer loop
      vertex 40.3464 0.5 6.39844
      vertex 40 0.5 6.1
      vertex 40.3464 0.5 6.3
    endloop
  endfacet
  facet normal -1 0 0
    outer loop
      vertex 39.6667 0.5 6.29245
      vertex 39.6667 100.4 6.39844
      vertex 39.6667 100.4 6.29245
    endloop
  endfacet
  facet normal -1 -0 0
    outer loop
      vertex 39.6667 100.4 6.39844
      vertex 39.6667 0.5 6.29245
      vertex 39.6667 0.5 6.39844
    endloop
  endfacet
  facet normal -0.500001 0 -0.866025
    outer loop
      vertex 39.6667 0.5 6.29245
      vertex 40 100.4 6.1
      vertex 40 0.5 6.1
    endloop
  endfacet
  facet normal -0.500001 0 -0.866025
    outer loop
      vertex 40 100.4 6.1
      vertex 39.6667 0.5 6.29245
      vertex 39.6667 100.4 6.29245
    endloop
  endfacet
  facet normal 0.500001 0 -0.866025
    outer loop
      vertex 40 0.5 6.1
      vertex 40.3464 100.4 6.3
      vertex 40.3464 0.5 6.3
    endloop
  endfacet
  facet normal 0.500001 0 -0.866025
    outer loop
      vertex 40.3464 100.4 6.3
      vertex 40 0.5 6.1
      vertex 40 100.4 6.1
    endloop
  endfacet
  facet normal 1 -0 0
    outer loop
      vertex 40.3464 0.5 6.39844
      vertex 40.3464 100.4 6.3
      vertex 40.3464 100.4 6.39844
    endloop
  endfacet
  facet normal 1 0 0
    outer loop
      vertex 40.3464 100.4 6.3
      vertex 40.3464 0.5 6.39844
      vertex 40.3464 0.5 6.3
    endloop
  endfacet
  facet normal 0 1 0
    outer loop
      vertex 36 100.4 6.1
      vertex 36.3464 100.4 6.39844
      vertex 36.3464 100.4 6.3
    endloop
  endfacet
  facet normal 0 1 0
    outer loop
      vertex 36.3464 100.4 6.39844
      vertex 36 100.4 6.1
      vertex 35.6667 100.4 6.39844
    endloop
  endfacet
  facet normal 0 1 0
    outer loop
      vertex 35.6667 100.4 6.39844
      vertex 36 100.4 6.1
      vertex 35.6667 100.4 6.29245
    endloop
  endfacet
  facet normal 0 -1 0
    outer loop
      vertex 36 0.5 6.1
      vertex 36.3464 0.5 6.39844
      vertex 35.6667 0.5 6.39844
    endloop
  endfacet
  facet normal 0 -1 0
    outer loop
      vertex 36 0.5 6.1
      vertex 35.6667 0.5 6.39844
      vertex 35.6667 0.5 6.29245
    endloop
  endfacet
  facet normal 0 -1 -0
    outer loop
      vertex 36.3464 0.5 6.39844
      vertex 36 0.5 6.1
      vertex 36.3464 0.5 6.3
    endloop
  endfacet
  facet normal -1 0 0
    outer loop
      vertex 35.6667 0.5 6.29245
      vertex 35.6667 100.4 6.39844
      vertex 35.6667 100.4 6.29245
    endloop
  endfacet
  facet normal -1 -0 0
    outer loop
      vertex 35.6667 100.4 6.39844
      vertex 35.6667 0.5 6.29245
      vertex 35.6667 0.5 6.39844
    endloop
  endfacet
  facet normal -0.500001 0 -0.866025
    outer loop
      vertex 35.6667 0.5 6.29245
      vertex 36 100.4 6.1
      vertex 36 0.5 6.1
    endloop
  endfacet
  facet normal -0.500001 0 -0.866025
    outer loop
      vertex 36 100.4 6.1
      vertex 35.6667 0.5 6.29245
      vertex 35.6667 100.4 6.29245
    endloop
  endfacet
  facet normal 0.500001 0 -0.866025
    outer loop
      vertex 36 0.5 6.1
      vertex 36.3464 100.4 6.3
      vertex 36.3464 0.5 6.3
    endloop
  endfacet
  facet normal 0.500001 0 -0.866025
    outer loop
      vertex 36.3464 100.4 6.3
      vertex 36 0.5 6.1
      vertex 36 100.4 6.1
    endloop
  endfacet
  facet normal 1 -0 0
    outer loop
      vertex 36.3464 0.5 6.39844
      vertex 36.3464 100.4 6.3
      vertex 36.3464 100.4 6.39844
    endloop
  endfacet
  facet normal 1 0 0
    outer loop
      vertex 36.3464 100.4 6.3
      vertex 36.3464 0.5 6.39844
      vertex 36.3464 0.5 6.3
    endloop
  endfacet
  facet normal 0 1 0
    outer loop
      vertex 32 100.4 6.1
      vertex 32.3464 100.4 6.39844
      vertex 32.3464 100.4 6.3
    endloop
  endfacet
  facet normal 0 1 0
    outer loop
      vertex 32.3464 100.4 6.39844
      vertex 32 100.4 6.1
      vertex 31.6667 100.4 6.39844
    endloop
  endfacet
  facet normal 0 1 0
    outer loop
      vertex 31.6667 100.4 6.39844
      vertex 32 100.4 6.1
      vertex 31.6667 100.4 6.29245
    endloop
  endfacet
  facet normal 0 -1 0
    outer loop
      vertex 32 0.5 6.1
      vertex 32.3464 0.5 6.39844
      vertex 31.6667 0.5 6.39844
    endloop
  endfacet
  facet normal 0 -1 0
    outer loop
      vertex 32 0.5 6.1
      vertex 31.6667 0.5 6.39844
      vertex 31.6667 0.5 6.29245
    endloop
  endfacet
  facet normal 0 -1 -0
    outer loop
      vertex 32.3464 0.5 6.39844
      vertex 32 0.5 6.1
      vertex 32.3464 0.5 6.3
    endloop
  endfacet
  facet normal -1 0 0
    outer loop
      vertex 31.6667 0.5 6.29245
      vertex 31.6667 100.4 6.39844
      vertex 31.6667 100.4 6.29245
    endloop
  endfacet
  facet normal -1 -0 0
    outer loop
      vertex 31.6667 100.4 6.39844
      vertex 31.6667 0.5 6.29245
      vertex 31.6667 0.5 6.39844
    endloop
  endfacet
  facet normal -0.499999 0 -0.866026
    outer loop
      vertex 31.6667 0.5 6.29245
      vertex 32 100.4 6.1
      vertex 32 0.5 6.1
    endloop
  endfacet
  facet normal -0.499999 0 -0.866026
    outer loop
      vertex 32 100.4 6.1
      vertex 31.6667 0.5 6.29245
      vertex 31.6667 100.4 6.29245
    endloop
  endfacet
  facet normal 0.500001 0 -0.866025
    outer loop
      vertex 32 0.5 6.1
      vertex 32.3464 100.4 6.3
      vertex 32.3464 0.5 6.3
    endloop
  endfacet
  facet normal 0.500001 0 -0.866025
    outer loop
      vertex 32.3464 100.4 6.3
      vertex 32 0.5 6.1
      vertex 32 100.4 6.1
    endloop
  endfacet
  facet normal 1 -0 0
    outer loop
      vertex 32.3464 0.5 6.39844
      vertex 32.3464 100.4 6.3
      vertex 32.3464 100.4 6.39844
    endloop
  endfacet
  facet normal 1 0 0
    outer loop
      vertex 32.3464 100.4 6.3
      vertex 32.3464 0.5 6.39844
      vertex 32.3464 0.5 6.3
    endloop
  endfacet
  facet normal 0 1 0
    outer loop
      vertex 28 100.4 6.1
      vertex 28.3464 100.4 6.39844
      vertex 28.3464 100.4 6.3
    endloop
  endfacet
  facet normal 0 1 0
    outer loop
      vertex 28.3464 100.4 6.39844
      vertex 28 100.4 6.1
      vertex 27.6667 100.4 6.39844
    endloop
  endfacet
  facet normal 0 1 0
    outer loop
      vertex 27.6667 100.4 6.39844
      vertex 28 100.4 6.1
      vertex 27.6667 100.4 6.29245
    endloop
  endfacet
  facet normal 0 -1 0
    outer loop
      vertex 28 0.5 6.1
      vertex 28.3464 0.5 6.39844
      vertex 27.6667 0.5 6.39844
    endloop
  endfacet
  facet normal 0 -1 0
    outer loop
      vertex 28 0.5 6.1
      vertex 27.6667 0.5 6.39844
      vertex 27.6667 0.5 6.29245
    endloop
  endfacet
  facet normal 0 -1 -0
    outer loop
      vertex 28.3464 0.5 6.39844
      vertex 28 0.5 6.1
      vertex 28.3464 0.5 6.3
    endloop
  endfacet
  facet normal -1 0 0
    outer loop
      vertex 27.6667 0.5 6.29245
      vertex 27.6667 100.4 6.39844
      vertex 27.6667 100.4 6.29245
    endloop
  endfacet
  facet normal -1 -0 0
    outer loop
      vertex 27.6667 100.4 6.39844
      vertex 27.6667 0.5 6.29245
      vertex 27.6667 0.5 6.39844
    endloop
  endfacet
  facet normal -0.499999 0 -0.866026
    outer loop
      vertex 27.6667 0.5 6.29245
      vertex 28 100.4 6.1
      vertex 28 0.5 6.1
    endloop
  endfacet
  facet normal -0.499999 0 -0.866026
    outer loop
      vertex 28 100.4 6.1
      vertex 27.6667 0.5 6.29245
      vertex 27.6667 100.4 6.29245
    endloop
  endfacet
  facet normal 0.500001 0 -0.866025
    outer loop
      vertex 28 0.5 6.1
      vertex 28.3464 100.4 6.3
      vertex 28.3464 0.5 6.3
    endloop
  endfacet
  facet normal 0.500001 0 -0.866025
    outer loop
      vertex 28.3464 100.4 6.3
      vertex 28 0.5 6.1
      vertex 28 100.4 6.1
    endloop
  endfacet
  facet normal 1 -0 0
    outer loop
      vertex 28.3464 0.5 6.39844
      vertex 28.3464 100.4 6.3
      vertex 28.3464 100.4 6.39844
    endloop
  endfacet
  facet normal 1 0 0
    outer loop
      vertex 28.3464 100.4 6.3
      vertex 28.3464 0.5 6.39844
      vertex 28.3464 0.5 6.3
    endloop
  endfacet
  facet normal 0 1 0
    outer loop
      vertex 24 100.4 6.1
      vertex 24.3464 100.4 6.39844
      vertex 24.3464 100.4 6.3
    endloop
  endfacet
  facet normal 0 1 0
    outer loop
      vertex 24.3464 100.4 6.39844
      vertex 24 100.4 6.1
      vertex 23.6667 100.4 6.39844
    endloop
  endfacet
  facet normal 0 1 0
    outer loop
      vertex 23.6667 100.4 6.39844
      vertex 24 100.4 6.1
      vertex 23.6667 100.4 6.29245
    endloop
  endfacet
  facet normal 0 -1 0
    outer loop
      vertex 24 0.5 6.1
      vertex 24.3464 0.5 6.39844
      vertex 23.6667 0.5 6.39844
    endloop
  endfacet
  facet normal 0 -1 0
    outer loop
      vertex 24 0.5 6.1
      vertex 23.6667 0.5 6.39844
      vertex 23.6667 0.5 6.29245
    endloop
  endfacet
  facet normal 0 -1 -0
    outer loop
      vertex 24.3464 0.5 6.39844
      vertex 24 0.5 6.1
      vertex 24.3464 0.5 6.3
    endloop
  endfacet
  facet normal -1 0 0
    outer loop
      vertex 23.6667 0.5 6.29245
      vertex 23.6667 100.4 6.39844
      vertex 23.6667 100.4 6.29245
    endloop
  endfacet
  facet normal -1 -0 0
    outer loop
      vertex 23.6667 100.4 6.39844
      vertex 23.6667 0.5 6.29245
      vertex 23.6667 0.5 6.39844
    endloop
  endfacet
  facet normal -0.499999 0 -0.866026
    outer loop
      vertex 23.6667 0.5 6.29245
      vertex 24 100.4 6.1
      vertex 24 0.5 6.1
    endloop
  endfacet
  facet normal -0.499999 0 -0.866026
    outer loop
      vertex 24 100.4 6.1
      vertex 23.6667 0.5 6.29245
      vertex 23.6667 100.4 6.29245
    endloop
  endfacet
  facet normal 0.500001 0 -0.866025
    outer loop
      vertex 24 0.5 6.1
      vertex 24.3464 100.4 6.3
      vertex 24.3464 0.5 6.3
    endloop
  endfacet
  facet normal 0.500001 0 -0.866025
    outer loop
      vertex 24.3464 100.4 6.3
      vertex 24 0.5 6.1
      vertex 24 100.4 6.1
    endloop
  endfacet
  facet normal 1 -0 0
    outer loop
      vertex 24.3464 0.5 6.39844
      vertex 24.3464 100.4 6.3
      vertex 24.3464 100.4 6.39844
    endloop
  endfacet
  facet normal 1 0 0
    outer loop
      vertex 24.3464 100.4 6.3
      vertex 24.3464 0.5 6.39844
      vertex 24.3464 0.5 6.3
    endloop
  endfacet
  facet normal 0 1 0
    outer loop
      vertex 20 100.4 6.1
      vertex 20.3464 100.4 6.39844
      vertex 20.3464 100.4 6.3
    endloop
  endfacet
  facet normal 0 1 0
    outer loop
      vertex 20.3464 100.4 6.39844
      vertex 20 100.4 6.1
      vertex 19.6667 100.4 6.39844
    endloop
  endfacet
  facet normal 0 1 0
    outer loop
      vertex 19.6667 100.4 6.39844
      vertex 20 100.4 6.1
      vertex 19.6667 100.4 6.29245
    endloop
  endfacet
  facet normal 0 -1 0
    outer loop
      vertex 20 0.5 6.1
      vertex 20.3464 0.5 6.39844
      vertex 19.6667 0.5 6.39844
    endloop
  endfacet
  facet normal 0 -1 0
    outer loop
      vertex 20 0.5 6.1
      vertex 19.6667 0.5 6.39844
      vertex 19.6667 0.5 6.29245
    endloop
  endfacet
  facet normal 0 -1 -0
    outer loop
      vertex 20.3464 0.5 6.39844
      vertex 20 0.5 6.1
      vertex 20.3464 0.5 6.3
    endloop
  endfacet
  facet normal -1 0 0
    outer loop
      vertex 19.6667 0.5 6.29245
      vertex 19.6667 100.4 6.39844
      vertex 19.6667 100.4 6.29245
    endloop
  endfacet
  facet normal -1 -0 0
    outer loop
      vertex 19.6667 100.4 6.39844
      vertex 19.6667 0.5 6.29245
      vertex 19.6667 0.5 6.39844
    endloop
  endfacet
  facet normal -0.499999 0 -0.866026
    outer loop
      vertex 19.6667 0.5 6.29245
      vertex 20 100.4 6.1
      vertex 20 0.5 6.1
    endloop
  endfacet
  facet normal -0.499999 0 -0.866026
    outer loop
      vertex 20 100.4 6.1
      vertex 19.6667 0.5 6.29245
      vertex 19.6667 100.4 6.29245
    endloop
  endfacet
  facet normal 0.500001 0 -0.866025
    outer loop
      vertex 20 0.5 6.1
      vertex 20.3464 100.4 6.3
      vertex 20.3464 0.5 6.3
    endloop
  endfacet
  facet normal 0.500001 0 -0.866025
    outer loop
      vertex 20.3464 100.4 6.3
      vertex 20 0.5 6.1
      vertex 20 100.4 6.1
    endloop
  endfacet
  facet normal 1 -0 0
    outer loop
      vertex 20.3464 0.5 6.39844
      vertex 20.3464 100.4 6.3
      vertex 20.3464 100.4 6.39844
    endloop
  endfacet
  facet normal 1 0 0
    outer loop
      vertex 20.3464 100.4 6.3
      vertex 20.3464 0.5 6.39844
      vertex 20.3464 0.5 6.3
    endloop
  endfacet
  facet normal 0 1 0
    outer loop
      vertex 16 100.4 6.1
      vertex 16.3464 100.4 6.39844
      vertex 16.3464 100.4 6.3
    endloop
  endfacet
  facet normal 0 1 0
    outer loop
      vertex 16.3464 100.4 6.39844
      vertex 16 100.4 6.1
      vertex 15.6667 100.4 6.39844
    endloop
  endfacet
  facet normal 0 1 0
    outer loop
      vertex 15.6667 100.4 6.39844
      vertex 16 100.4 6.1
      vertex 15.6667 100.4 6.29245
    endloop
  endfacet
  facet normal 0 -1 0
    outer loop
      vertex 16 0.5 6.1
      vertex 16.3464 0.5 6.39844
      vertex 15.6667 0.5 6.39844
    endloop
  endfacet
  facet normal 0 -1 0
    outer loop
      vertex 16 0.5 6.1
      vertex 15.6667 0.5 6.39844
      vertex 15.6667 0.5 6.29245
    endloop
  endfacet
  facet normal 0 -1 -0
    outer loop
      vertex 16.3464 0.5 6.39844
      vertex 16 0.5 6.1
      vertex 16.3464 0.5 6.3
    endloop
  endfacet
  facet normal -1 0 0
    outer loop
      vertex 15.6667 0.5 6.29245
      vertex 15.6667 100.4 6.39844
      vertex 15.6667 100.4 6.29245
    endloop
  endfacet
  facet normal -1 -0 0
    outer loop
      vertex 15.6667 100.4 6.39844
      vertex 15.6667 0.5 6.29245
      vertex 15.6667 0.5 6.39844
    endloop
  endfacet
  facet normal -0.5 0 -0.866025
    outer loop
      vertex 15.6667 0.5 6.29245
      vertex 16 100.4 6.1
      vertex 16 0.5 6.1
    endloop
  endfacet
  facet normal -0.5 0 -0.866025
    outer loop
      vertex 16 100.4 6.1
      vertex 15.6667 0.5 6.29245
      vertex 15.6667 100.4 6.29245
    endloop
  endfacet
  facet normal 0.500001 0 -0.866025
    outer loop
      vertex 16 0.5 6.1
      vertex 16.3464 100.4 6.3
      vertex 16.3464 0.5 6.3
    endloop
  endfacet
  facet normal 0.500001 0 -0.866025
    outer loop
      vertex 16.3464 100.4 6.3
      vertex 16 0.5 6.1
      vertex 16 100.4 6.1
    endloop
  endfacet
  facet normal 1 -0 0
    outer loop
      vertex 16.3464 0.5 6.39844
      vertex 16.3464 100.4 6.3
      vertex 16.3464 100.4 6.39844
    endloop
  endfacet
  facet normal 1 0 0
    outer loop
      vertex 16.3464 100.4 6.3
      vertex 16.3464 0.5 6.39844
      vertex 16.3464 0.5 6.3
    endloop
  endfacet
  facet normal 0 1 0
    outer loop
      vertex 12 100.4 6.1
      vertex 12.3464 100.4 6.39844
      vertex 12.3464 100.4 6.3
    endloop
  endfacet
  facet normal 0 1 0
    outer loop
      vertex 12.3464 100.4 6.39844
      vertex 12 100.4 6.1
      vertex 11.6667 100.4 6.39844
    endloop
  endfacet
  facet normal 0 1 0
    outer loop
      vertex 11.6667 100.4 6.39844
      vertex 12 100.4 6.1
      vertex 11.6667 100.4 6.29245
    endloop
  endfacet
  facet normal 0 -1 0
    outer loop
      vertex 12 0.5 6.1
      vertex 12.3464 0.5 6.39844
      vertex 11.6667 0.5 6.39844
    endloop
  endfacet
  facet normal 0 -1 0
    outer loop
      vertex 12 0.5 6.1
      vertex 11.6667 0.5 6.39844
      vertex 11.6667 0.5 6.29245
    endloop
  endfacet
  facet normal 0 -1 -0
    outer loop
      vertex 12.3464 0.5 6.39844
      vertex 12 0.5 6.1
      vertex 12.3464 0.5 6.3
    endloop
  endfacet
  facet normal -1 0 0
    outer loop
      vertex 11.6667 0.5 6.29245
      vertex 11.6667 100.4 6.39844
      vertex 11.6667 100.4 6.29245
    endloop
  endfacet
  facet normal -1 -0 0
    outer loop
      vertex 11.6667 100.4 6.39844
      vertex 11.6667 0.5 6.29245
      vertex 11.6667 0.5 6.39844
    endloop
  endfacet
  facet normal -0.5 0 -0.866025
    outer loop
      vertex 11.6667 0.5 6.29245
      vertex 12 100.4 6.1
      vertex 12 0.5 6.1
    endloop
  endfacet
  facet normal -0.5 0 -0.866025
    outer loop
      vertex 12 100.4 6.1
      vertex 11.6667 0.5 6.29245
      vertex 11.6667 100.4 6.29245
    endloop
  endfacet
  facet normal 0.5 0 -0.866025
    outer loop
      vertex 12 0.5 6.1
      vertex 12.3464 100.4 6.3
      vertex 12.3464 0.5 6.3
    endloop
  endfacet
  facet normal 0.5 0 -0.866025
    outer loop
      vertex 12.3464 100.4 6.3
      vertex 12 0.5 6.1
      vertex 12 100.4 6.1
    endloop
  endfacet
  facet normal 1 -0 0
    outer loop
      vertex 12.3464 0.5 6.39844
      vertex 12.3464 100.4 6.3
      vertex 12.3464 100.4 6.39844
    endloop
  endfacet
  facet normal 1 0 0
    outer loop
      vertex 12.3464 100.4 6.3
      vertex 12.3464 0.5 6.39844
      vertex 12.3464 0.5 6.3
    endloop
  endfacet
  facet normal 0 1 0
    outer loop
      vertex 8 100.4 6.1
      vertex 8.34641 100.4 6.39844
      vertex 8.34641 100.4 6.3
    endloop
  endfacet
  facet normal 0 1 0
    outer loop
      vertex 8.34641 100.4 6.39844
      vertex 8 100.4 6.1
      vertex 7.66667 100.4 6.39844
    endloop
  endfacet
  facet normal 0 1 0
    outer loop
      vertex 7.66667 100.4 6.39844
      vertex 8 100.4 6.1
      vertex 7.66667 100.4 6.29245
    endloop
  endfacet
  facet normal 0 -1 0
    outer loop
      vertex 8 0.5 6.1
      vertex 8.34641 0.5 6.39844
      vertex 7.66667 0.5 6.39844
    endloop
  endfacet
  facet normal 0 -1 0
    outer loop
      vertex 8 0.5 6.1
      vertex 7.66667 0.5 6.39844
      vertex 7.66667 0.5 6.29245
    endloop
  endfacet
  facet normal 0 -1 -0
    outer loop
      vertex 8.34641 0.5 6.39844
      vertex 8 0.5 6.1
      vertex 8.34641 0.5 6.3
    endloop
  endfacet
  facet normal -1 0 0
    outer loop
      vertex 7.66667 0.5 6.29245
      vertex 7.66667 100.4 6.39844
      vertex 7.66667 100.4 6.29245
    endloop
  endfacet
  facet normal -1 -0 0
    outer loop
      vertex 7.66667 100.4 6.39844
      vertex 7.66667 0.5 6.29245
      vertex 7.66667 0.5 6.39844
    endloop
  endfacet
  facet normal -0.5 0 -0.866025
    outer loop
      vertex 7.66667 0.5 6.29245
      vertex 8 100.4 6.1
      vertex 8 0.5 6.1
    endloop
  endfacet
  facet normal -0.5 0 -0.866025
    outer loop
      vertex 8 100.4 6.1
      vertex 7.66667 0.5 6.29245
      vertex 7.66667 100.4 6.29245
    endloop
  endfacet
  facet normal 0.5 0 -0.866025
    outer loop
      vertex 8 0.5 6.1
      vertex 8.34641 100.4 6.3
      vertex 8.34641 0.5 6.3
    endloop
  endfacet
  facet normal 0.5 0 -0.866025
    outer loop
      vertex 8.34641 100.4 6.3
      vertex 8 0.5 6.1
      vertex 8 100.4 6.1
    endloop
  endfacet
  facet normal 1 -0 0
    outer loop
      vertex 8.34641 0.5 6.39844
      vertex 8.34641 100.4 6.3
      vertex 8.34641 100.4 6.39844
    endloop
  endfacet
  facet normal 1 0 0
    outer loop
      vertex 8.34641 100.4 6.3
      vertex 8.34641 0.5 6.39844
      vertex 8.34641 0.5 6.3
    endloop
  endfacet
  facet normal 0 1 0
    outer loop
      vertex 4 100.4 6.1
      vertex 4.34641 100.4 6.39844
      vertex 4.34641 100.4 6.3
    endloop
  endfacet
  facet normal 0 1 0
    outer loop
      vertex 4.34641 100.4 6.39844
      vertex 4 100.4 6.1
      vertex 3.66667 100.4 6.39844
    endloop
  endfacet
  facet normal 0 1 0
    outer loop
      vertex 3.66667 100.4 6.39844
      vertex 4 100.4 6.1
      vertex 3.66667 100.4 6.29245
    endloop
  endfacet
  facet normal 0 -1 0
    outer loop
      vertex 4 0.5 6.1
      vertex 4.34641 0.5 6.39844
      vertex 3.66667 0.5 6.39844
    endloop
  endfacet
  facet normal 0 -1 0
    outer loop
      vertex 4 0.5 6.1
      vertex 3.66667 0.5 6.39844
      vertex 3.66667 0.5 6.29245
    endloop
  endfacet
  facet normal 0 -1 -0
    outer loop
      vertex 4.34641 0.5 6.39844
      vertex 4 0.5 6.1
      vertex 4.34641 0.5 6.3
    endloop
  endfacet
  facet normal -1 0 0
    outer loop
      vertex 3.66667 0.5 6.29245
      vertex 3.66667 100.4 6.39844
      vertex 3.66667 100.4 6.29245
    endloop
  endfacet
  facet normal -1 -0 0
    outer loop
      vertex 3.66667 100.4 6.39844
      vertex 3.66667 0.5 6.29245
      vertex 3.66667 0.5 6.39844
    endloop
  endfacet
  facet normal -0.5 0 -0.866025
    outer loop
      vertex 3.66667 0.5 6.29245
      vertex 4 100.4 6.1
      vertex 4 0.5 6.1
    endloop
  endfacet
  facet normal -0.5 0 -0.866025
    outer loop
      vertex 4 100.4 6.1
      vertex 3.66667 0.5 6.29245
      vertex 3.66667 100.4 6.29245
    endloop
  endfacet
  facet normal 0.5 0 -0.866025
    outer loop
      vertex 4 0.5 6.1
      vertex 4.34641 100.4 6.3
      vertex 4.34641 0.5 6.3
    endloop
  endfacet
  facet normal 0.5 0 -0.866025
    outer loop
      vertex 4.34641 100.4 6.3
      vertex 4 0.5 6.1
      vertex 4 100.4 6.1
    endloop
  endfacet
  facet normal 1 -0 0
    outer loop
      vertex 4.34641 0.5 6.39844
      vertex 4.34641 100.4 6.3
      vertex 4.34641 100.4 6.39844
    endloop
  endfacet
  facet normal 1 0 0
    outer loop
      vertex 4.34641 100.4 6.3
      vertex 4.34641 0.5 6.39844
      vertex 4.34641 0.5 6.3
    endloop
  endfacet
endsolid OpenSCAD_Model
